/* XPM */
static char *_dbb3a703d7442658edd4c122f1c959cdgjJBHcHYvKPHtoJ[] = {
/* columns rows colors chars-per-pixel */
"50 50 118 2 ",
"   c #4B433B",
".  c #4D443C",
"X  c #4C443B",
"o  c #4C433B",
"O  c #4B423A",
"+  c #473F37",
"@  c #433B34",
"#  c #4B4239",
"$  c #4A423A",
"%  c #4B433A",
"&  c #443C35",
"*  c #453E36",
"=  c #494139",
"-  c #484038",
";  c #443D35",
":  c #484037",
">  c #4A4239",
",  c #4D453C",
"<  c #423B33",
"1  c #494039",
"2  c #463E36",
"3  c #494138",
"4  c #474037",
"5  c #413A33",
"6  c #4C443C",
"7  c #453D35",
"8  c #4E463D",
"9  c #4E453D",
"0  c #4E453C",
"q  c #413932",
"w  c #433B33",
"e  c #473F38",
"r  c #463E37",
"t  c #3E3730",
"y  c #483F38",
"u  c #3F3831",
"i  c #403831",
"p  c #423A33",
"a  c #4F463D",
"s  c #403932",
"d  c #3D3630",
"f  c #413A32",
"g  c #3D362F",
"h  c #473E37",
"j  c #433C34",
"k  c #484139",
"l  c #443C34",
"z  c #474038",
"x  c #453D36",
"c  c #4A4139",
"v  c #463D36",
"b  c #463F37",
"n  c #494038",
"m  c #50473E",
"M  c #51483F",
"N  c #3A342D",
"B  c #3C352F",
"V  c #423B34",
"C  c #4C433A",
"Z  c #4D443B",
"A  c #39332D",
"S  c #4A413A",
"D  c #3B342D",
"F  c #4F473E",
"G  c #39322C",
"H  c #3F3830",
"J  c #484138",
"K  c #3A332D",
"L  c #3C352E",
"P  c #3F3832",
"I  c #38322C",
"U  c #37302B",
"Y  c #3C362F",
"T  c #403832",
"R  c #3E3731",
"E  c #3D3730",
"W  c #3B342E",
"Q  c #403931",
"!  c #433C35",
"~  c #3F3731",
"^  c #4F473D",
"/  c #39332C",
"(  c #3E3630",
")  c #38322B",
"_  c #453C35",
"`  c #413933",
"'  c #3D352F",
"]  c #37312B",
"[  c #4B443B",
"{  c #36302A",
"}  c #38312B",
"|  c #3A342E",
" . c #4F463E",
".. c #352F29",
"X. c #433A33",
"o. c #443B34",
"O. c #50473F",
"+. c #362F2A",
"@. c #473F36",
"#. c #494239",
"$. c #484039",
"%. c #3B352F",
"&. c #352E29",
"*. c #443D36",
"=. c #49423A",
"-. c #463F36",
";. c #463E35",
":. c #3F3730",
">. c #4D453D",
",. c #483F37",
"<. c #3C342E",
"1. c #4D453B",
"2. c #38312C",
"3. c #4E463C",
"4. c #423A32",
"5. c #423A34",
"6. c #4A433A",
"7. c white",
/* pixels */
"  . X o O X X + @ . .   o # $   % & * =     O %   % X X % = - - ; : % > % , % % , - < + o   o X $ % ",
"X % X X . o 1 @ 2 O = = 3 - 4 =   o @ 5 + $ X 6   % % = $ - 7 5 2 X $ - > . % $ , 8 + & O 9 . O > % ",
"0 $ $ . X + q + 7 @ w + + & e r + $ $ @ ; 2 r - = > = 7 - 2 t 5 + = > 3 - $ > + = $ % y & $ 0 X $ % ",
"% X % o + u i * + 7 p $ a y + s d = , > f g @ 2 2 2 7 & 3 * p p 7 = = = = + 7 2 - h : O + j % 0 0 0 ",
"- = $ y t 5 & - % o 7 - . . , 7 p k = 7 l q - o , , h 2 j z X > 7 x = > + = a X $ . = 2 > 2 l > % X ",
"c $ - u x % > l v   % 2 o % 0 . & u p l O o @ p b %   j 2 o . , r 5 l 2 $ X X + 5 y 9 = + = x j % : ",
"X = & 2 0 n x j o m a 2 p & = $ & p 7 % a = @ @ = . , + - , , 9 - @ ; = 8 $ + x +   X 3 2 % % $ = b ",
". - x 0 M , x p 2 . a @ N B @ v 7 7 7 O 0 X 3 7 & % , + t B + 8 - w @ = 8 , % & V -   - 2   X   O = ",
"C @ 7 O .   Z < @   o d A g = . o 4 * o a , $ + < S 8 ; D B 4 8 , - p - m F a = ; 3 0 n @ - Z > $ = ",
"2 s 7 O 9 6 O $ o 0 h G D h 8 F .   V = 9 % % O $ X - B G & $ , m a @ x m 0 0 X $ 0 X w H 7 > = O = ",
"J = 7 s $ . o . 6 ; K G L + X . . 0 i g = % j = Z - P I U ; X . a 8 j t 2 % , Z % > < Y q @ T & % O ",
"Z % < f d u 2 7 j < 7 - - 2   , 0 . u G R t q 7 2 @ x - q p o a 0 X V K g E f h b b 2 =   & s > o % ",
". = t l 7 t + @ & O 0 a X $ y X 8 0 @ W W < - r 7 +   , % & x 6 9 , x L Q + = + ; + X F = & + e $ % ",
"X > < l $ b ! $ 0 8 0 . , 9 v + : y @ d ! % o e -   9 8 , $ p 5 x 2 & & = 8 8 + r   X 3 ; > c x   $ ",
"Z 2 7 &   o x x Z , 0 8 a 0 V q < @ ~ & , a - @ = ^ 8 9 . , < / u 5 ( 2 0 , % 7 r   b ; O a 3 2 X = ",
"O < @ @ v . . n 7 o 8 , 8 , u W L d t b $ = ; V $ a 9 , , 0 @ ) K 5 ; 3 = ; & 7 - e j = 8 9 = + X - ",
"= _ + - - , n 2 + r , Z 8 z L K K p - = = + i t = 0 0 , , - u K g p = , > l < ` f 7 - . . . r & - - ",
"= r . 0 8 8 n ' 5 j h Z c t ] / p . F 8 Z > s N p Z a , X q G K x = * = 9 [ 2 B { t + y + 2 5 p r c ",
"= _ . , . 9 8 ~ G f Y 2 & B } ] - F 8 Z , 0 2 L G p r J + f | / 2  .3 + . 0 : B ..{ L 5 X.s s @ 2 $ ",
"- o.X , . . = s B W / ; = 2 u K - 8 ,    .O.& ' K +.U p r b < g r a a . , , - u N I } u @.; @ @ 2 o ",
"+ @ o 8 9 X n + @ < W - ^ , + B @ o . , a a 7 2 ! B } j o , > 5 j , m m . ,   + 7 5 g s   $ 2 j - , ",
"- p 2   . 0 a   .   s #., . O s K j - + % , a o $.$ @ b   0 8 j / < y 2 = 8 8   O   2 j % , #.s & = ",
"  & p 7 , 6 o z - % = o X . o ; | G L t - % > 7 j #.8 X   6 6 x W K / K 7   $ r x   m > *   $ j * - ",
"Z X _ o , z x 7 n O l ; - $ $ s s ( ~ c . = 2 @ - X , - + $ [ 2 j %.U @ Z > _ s p o F $ j V x & 2 = ",
"Z c 2 O , > r 7 s 5 O * t L @ x u G f O Z ^ % & < > 8 * B L p 2 7 d t c m 0 = * s p . O u B @ p & = ",
"3 V j $ 8 X % * u = X L } W c , > s i c . Z 8 % 2 O 0 u &.A + o & p f e F a Z = l Q 2 x B u q u x - ",
"+ 5 *.= 0 0 % @ $ o 2 W K + 0 m m , ~ y 9 0 0 0 . Z - A { x % & 2 X 5 < . , , . %   ; W t l q @ : - ",
"= f s 7 a 6 V + o 2 ( N B =.0 9 m 8 g / v 0 . o X -.t ] ] ; * 2 X 8 & L x   % , 0 + t K t @ T s @ = ",
"= @ q f t Y < < & p * J % - X m 8 X Q B L ( @ x 2 7 y 1 + 5 x X 8 m @ ] K g p 2 ;.l 2 $ * 5 V _ = > ",
"  - i u :.2 3 7 2 = X % 8 , = 6 9 X 7 B 7 p x 7 &   . X 7 + + > 0 , 4 g s % X + l : , 8 , + f r = $ ",
"X $ ; g + >.X   X , 8 X o X 2 2 r x l + % O @ ` -  .. 7 x   J 2 + + b z $ 8 8 @.2 , , , a X ; :.& - ",
"% 2 ; @ $ , . 9 F M M F 0 . u g j u d - . 0 b p $ 8 o O X 0 & t p x 2 % , a % l - 8 8 X o 0 ,.Q & - ",
"O > 2 $ = , , 0 9 9 9 , , >.t G g 2 - c - l ; 7 $ 8 X . 9 0 < G <.* o 0 = b + ; 3 ^ m , , 8 3 Q j % ",
"$ = c X X 8 - @ X 0   , , ; g G p . 0 X = l ; < J ,   8 m 2 ' ) W y 8 , $ 2 s j X 8 a 8 ^ o l q x % ",
"$ + o X F 8 = t p < r + = t / G + 9 9 X . O ; B t 5 r - 3 i K W p   8 6 , % < i 5 u 7 > 4 @ i & = 3 ",
"- 7 C 2 8 m X A A K d < l q K G e 9 , Z a 8 5 / ] A E t p q W A & X 6 . 8 1.2 :.K 2.W p p p s f = c ",
"- x % 2 + 0 - ( G 2.W + c - q g >  .X , , - i u W K G u p x < G < X o . 8 3.7 t g K K p - x s & $   ",
"$ ; J . + 2 - = @ s B $ F , = @ 7 X 6 . b ; + k ; @ W j z * - s u = 8 0 , 0 - ; 7 @ R ;   ; ; + - = ",
"= 5 & c Z 2 r 2 - , j o 9 8 6 & :.; & @ & $ 8 $ + % * e , - 2 ; u 5 2 2 - . 8 o n % + j 2 - > @ 2 - ",
"z p & + % = q d x , a . o 9 6 & 4.i G d $ = J + 2 % a X X F J q @ 5 t i * $ X = x $ % p & o - @ + = ",
"$ p + , , 3 * E x 6 0 + 2 + o 7 5 t g > 8 + @ 7 c Z 8 - 2 = > < ~ 7 x = Z - ; ; + 1 v @ ; x & l + - ",
"z i & , , 8 > q :.+ . @ ' g x + @ t < Z a , = & @ - , 7 B W p + w 5 @ - , X y V 5 p e = & p @ = > + ",
"= p p 9 a F , + 2 & + L W f e 1 @ & < = a 8 8 = x =   < K W 2 8 a v :.* , . X - s x o + l q j = X = ",
"  l l C . 8 8 a .   u 2.| 4 $ & - . q 7 , X X   % X h i g r 0 8 9 0 < V 6 , , r + , * s & + r 2 , . ",
"% l p 7 + o , % = 7 p i 5 = 0 9 9 a p u c X   o X 7 q p & $ X % X 0 2 p = , . o 9 O @ q 7 % o   % . ",
"$ = V u q w * x * @ @ l H @ % a a 9 7 < @ 2 2 ; x q T @ @ x 3 %   , - @ 7 & 7 & & 5.T p * = % X $ % ",
"= 6 - 5 ~ p 5 p p p > = u p & O X - 5 t B 5 7 i s p - > & s j * b 2 p ` @ p Q s p q & $ ,.+ % $ O > ",
"= O 7 - + q ( x & r b % + Q u l 2 & f :.u - X V u + c X   ; 5 < f s u u 2 * s 7 - - c $ = = $ = e 2 ",
"Z X % X $ - @ + - z s 3 7 y V t s @ V 2 z 2 = S < = X - > $ * @ s R g 5 %   x q & $ % % X   $ % 6.* ",
"$ $ $ $ $ o C o S < ; % % O > 3 t r % X > - O . = %   c X #.e + 4 s f = o o $ - @ j > > #.X X o o + "
};
