/* XPM */
static char *_737339524234798bc6d599634695122dpxeu0HZFiSwqlmZ[] = {
/* columns rows colors chars-per-pixel */
"50 50 215 2 ",
"   c None",
".  c #3B2E45",
"X  c #332B42",
"o  c #343047",
"O  c #4C354B",
"+  c #463247",
"@  c #5A3747",
"#  c #53374C",
"$  c #55384C",
"%  c #5B3949",
"&  c #573947",
"*  c #5E3B52",
"=  c #623C4C",
"-  c #6C3E4C",
";  c #633B47",
":  c #743B4E",
">  c #7C3B4A",
",  c #7F3746",
"<  c #663E55",
"1  c #6A3E54",
"2  c #713D51",
"3  c #65434C",
"4  c #6A444C",
"5  c #6B4A4D",
"6  c #73444E",
"7  c #7A424F",
"8  c #794C4D",
"9  c #7A584E",
"0  c #6D4155",
"q  c #6C4459",
"w  c #63475C",
"e  c #734253",
"r  c #7C4451",
"t  c #754A57",
"y  c #7C4B56",
"u  c #764B59",
"i  c #7B4D5A",
"p  c #704759",
"a  c #7E5259",
"s  c #765B5C",
"d  c #7C5B53",
"f  c #585B6E",
"g  c #6B4B62",
"h  c #745A6E",
"j  c #795665",
"k  c #695D71",
"l  c #745E71",
"z  c #6C586E",
"x  c #5C627A",
"c  c #6F677E",
"v  c #6E687F",
"b  c #7D6C7B",
"n  c #756477",
"m  c #8F353F",
"M  c #92353D",
"N  c #9A3238",
"B  c #A43839",
"V  c #AC433D",
"C  c #B54C3E",
"Z  c #B9523F",
"A  c #8B3641",
"S  c #843A46",
"D  c #8B3D45",
"F  c #813D49",
"G  c #873B46",
"H  c #943C41",
"J  c #8D4247",
"K  c #84454E",
"L  c #89464D",
"P  c #824D4D",
"I  c #8B494E",
"U  c #934346",
"Y  c #9A4443",
"T  c #9D4946",
"R  c #924649",
"E  c #944A4C",
"W  c #9A4E4C",
"Q  c #9A4748",
"!  c #87534E",
"~  c #9A534E",
"^  c #96564E",
"/  c #834650",
"(  c #844A52",
")  c #8A4C51",
"_  c #924F50",
"`  c #855156",
"'  c #8C5353",
"]  c #8D5956",
"[  c #8B5D5A",
"{  c #845559",
"}  c #925453",
"|  c #965A54",
" . c #9B5A51",
".. c #935B5B",
"X. c #955654",
"o. c #A24743",
"O. c #A44A43",
"+. c #AB4D42",
"@. c #A04D4A",
"#. c #A2564E",
"$. c #AA534A",
"%. c #A45B4F",
"&. c #A85E4E",
"*. c #B55244",
"=. c #BA5947",
"-. c #A35D52",
";. c #AD5C52",
":. c #B24E42",
">. c #946352",
",. c #996451",
"<. c #93625A",
"1. c #976B5E",
"2. c #9E725F",
"3. c #8C615C",
"4. c #B1654F",
"5. c #BA604D",
"6. c #A46353",
"7. c #AB6452",
"8. c #AD6C55",
"9. c #A8665A",
"0. c #B16551",
"q. c #B46C52",
"w. c #BA6955",
"e. c #AB725C",
"r. c #A1755F",
"t. c #BC7556",
"y. c #B57A59",
"u. c #A3634F",
"i. c #835D66",
"p. c #905D60",
"a. c #926667",
"s. c #9B7974",
"d. c #906D67",
"f. c #A67A61",
"g. c #A87C63",
"h. c #A67661",
"j. c #B07769",
"k. c #C45B44",
"l. c #C55C45",
"z. c #C5644C",
"x. c #CC6649",
"c. c #D36E4D",
"v. c #C36C54",
"b. c #C47C57",
"n. c #C77556",
"m. c #BE805D",
"M. c #AD846C",
"N. c #AE8263",
"B. c #B98D66",
"V. c #B58B68",
"C. c #BE9166",
"Z. c #BC916A",
"A. c #A8887C",
"S. c #B68C76",
"D. c #BB9677",
"F. c #CE8A5B",
"G. c #CA8459",
"H. c #C1956B",
"J. c #C2986E",
"K. c #C6976A",
"L. c #C49C72",
"P. c #C49E78",
"I. c #CC956C",
"U. c #C7A076",
"Y. c #C8A176",
"T. c #C7A27A",
"R. c #CAA57B",
"E. c #CCA97F",
"W. c #D8A97A",
"Q. c #726D82",
"!. c #697788",
"~. c #79798B",
"^. c #727D95",
"/. c #797D90",
"(. c #6D6F80",
"). c #75849B",
"_. c #788898",
"`. c #7B8DA1",
"'. c #7F93A5",
"]. c #85818D",
"[. c #848A98",
"{. c #B09C83",
"}. c #B89A85",
"|. c #BEA189",
" X c #8296A6",
".X c #849CAB",
"XX c #8197A9",
"oX c #89A2AF",
"OX c #8AA4B1",
"+X c #8DA9B4",
"@X c #C49D83",
"#X c #CDAB82",
"$X c #C0A48B",
"%X c #CEAB8A",
"&X c #C4A485",
"*X c #D1AD84",
"=X c #DBAE80",
"-X c #D0AC8C",
";X c #CDB28C",
":X c #D1B086",
">X c #D3B489",
",X c #D6B98F",
"<X c #CAAF91",
"1X c #C6AC90",
"2X c #CCB191",
"3X c #D5BA93",
"4X c #D8BD93",
"5X c #D3BA97",
"6X c #DBC197",
"7X c #DDC49B",
"8X c #DFC89E",
"9X c #E0C99F",
"0X c #E0C79D",
"qX c #E1CAA0",
"wX c #E1CBA0",
/* pixels */
"                              S 2 1 1 1 A O.+.H A Y o.H D O.D K T                                   ",
"                            , M 2 < 1 1 A =.n.v.0.Q =.w.T =.=.J o.$.                                ",
"                            1 1 p a a a e e q q e F e e F e e F 1 e                                 ",
"                          S 2 0 f.B.B.B.1.1 : F R G > > J > > J F , J                               ",
"                        A M 1 3.Z.Y.E.E.T.i., C c.x.=.@.*.z.@.*.l.R Y *.                            ",
"                        : 2 t Z.,X7X7X6X0X$Xp K i i i K F i L K i G > r e                           ",
"                      > 1 0 2.H.P.6X#XZ.E.9Xs.< 1 : 7 S : : F : : F : : r                           ",
"                    m A 1 { B.C.Z.4X4X:X,X>XD.i : B x.x.*.T +.=.T O.k.U R :.                        ",
"                  2 , : q V.>X>X4X9XwXwX4XH.C.2.1 D ......} G ..X.J ..R S ) /                       ",
"                    1 1 1.H.E.7XwX9X9X9X6XL.C.J.a.1 < 1 1 > : 1 > 2 1 > 2 1 1                       ",
"                M S 1 a B.Z.L.7XwXwXwXwXwX6X4X6X<Xu 1 M Z =.V H T C Y U *.U K O.                    ",
"              , A 2 0 g.,X4X6X9X6X@XS.A.}.6XwXwXwXA.1 S ;.8.9.9.U -.9.Q -.#.D E W                   ",
"                1 1 [ #X9XwX3XS.p.e e e 0 i.A.5XwX5Xi.1 1 < < 2 > 1 : > 1 : : 1 1                   ",
"            A : 1 t S.7XwX7Xj.7 < < ) ) 1 1 < s.7XwX|.q 1 S Y +.Y D J O.D G O.H > T                 ",
"          S M 1 0 1.#X9XwX-X_ 0 1 1 ) } 1 1 1 p 2XwX7Xs.< , *.n.v.w.W $.w.@.$.5.Q U $.              ",
"          1 1 1 { P.E.>XwX%XE 0 0 0 ) } 0 0 0 q <XwXwX5Xj 1 2 q q 0 > 2 e F 2 e F 2 0               ",
"        S 1 1 q M.6X7X#X>X%XE e ) } 8.t.6.X.} ) <XwXwXwX{.0 1 > F R D , > R F > J J > I             ",
"      m A 1 1 1.#X7X9X7X4X%XE 0 e e _ | e e e p <X6X:X,X6Xd.1 , V c.c.l.$.+.z.$.O.z.T U *.Y         ",
"      : 1 1 t V.J.T.9X9XwX%XE 1 < < ) ' < < < q 2X,XJ.T.0X1Xu 1 > i i i / F i / F u J , r e         ",
"    > : 1 1 u B.J.:XwX9XwX*X .` i i ' ' i i i a &X4X6X7X6X6XA.1 1 1 : 7 G : 1 F : - F 7 : 7         ",
"  N S 1 1 1 u Z.4X4X4X6X9XI.7.7.8.8.9.q.q.q.q.7.( M.9X9XE.J.%Xi.< S B l.x.k.O.O.k.$.Y k.o.J +.+.    ",
": , 1 1 1 1 u Z.#XC.C.L.4XS.] { { ] { ] ] ] ] ] { S.6X,X>XE.>X}.q 1 F X.....] G ' ] J ' E G / /     ",
"  < 1 1 e 1 u Z.>XT.Y.P.*X6X>XT.T.T.T.T.T.T.T.P.E.7X>XZ.C.C.J.6Xd.1 1 < < < : : 1 : 2 1 : 1 1       ",
"    1 e / 1 u B.T.6X#XL.L.L.E.7XwXwXwXwXwX4X>X#X7XwX7XL.T.L.L.,XM.L r 2 G E J S S R G S J J > I     ",
"  1 0 L / < t N.N.V.D.D.P.I.W.W.=X=X=X=X=XI.W.W.=XD.|.2X5X&XD.Z.2./ r : V c.c.z.$.O.z.$.O.z.T U *.Q ",
"1 1 e } ' ' ' 9.e.e.e.h.[ m.b.0.&.&.&.&.&.7.q.b.G.` [ e.9.| | | } ) / r > u t u / F r L > r F , e e ",
"1 1 e ) I W ~ %.&.%. . ./ 9.) r ~ #.#.~ E ~ ~ ' } r ( ~ W W W W W W I / / q g g t g g t g q : 1 <   ",
"    e ( ) I I I I L r r r  .X.] E W W E W E E { ] r e r I I I I I I ) ) K c ^.^.^.^.^.^.^.z 1 1     ",
"    1 0 0 1 t h.f.g.g.f.f.7.-.6.E E E I _ ~ #.7.6.e p r.g.g.f.g.1.0 0 0 1 c ^.^.^.^.^.^.^.h r r     ",
"    r -.^ r ` B.H.>X4XE.T.h.[ [ ..<.<.[ [ <.<...[ [ 2.Z.E.4XL.H.f.} -.( 1 c ^.).).)..X`.^.h K r     ",
"    y 0.&.L ` B.P.>X,X9X9X>XE.#XT.J.J.J.L.#X#X#X#X#X#X4X8X7X4XU.f. .4.I 1 c `.OX X.X+X+X`.h L /     ",
"    y 7.~ L i Z.4X6X6X9X9XwXwXwX7X6X6X6X7XwXwXwXwXwXwXwX9X#XJ.H.f. .&.E L Q.OXOX X.X+X.X`.n E L     ",
"    y 7.W L u Z.6XwX7X7X9X9X9X9X9X9X9X9X9X9X9X9X9X9X9X9X9X6X>X>XD. .q.~ L Q.`.XX.X+X+X`.).l E L     ",
"    y q.0.L u Z.6XwX:X>XwX9XwXwXwXwXwXwXwXwXwXwXwXwX9X9X9XwXwXwX$X .b.#.L c ).OX_.k f _.+Xb E L     ",
"    y q.t.L i Z.4X,XE.7XwX5X{.{.{.{.{.{.{.{.{.{.{.;X9X9X9X4X6XwX$X .b.#.L Q..X_.o + . w  Xb E L     ",
"    y q.t.E ` B.P.,X4X8X7Xd.P 8 8 8 6 - - - - 6 P d ;XwX,XE.6XwX$X .t.~ L Q.OX!.X # . * [.b E L     ",
"    y q.t.E ` B.>XwXwX9X7Xs ; # O O # O $ O O $ % 5 P.E.Y.4XwXwX$X .b.#.L v ).x . - + < ~.l E L     ",
"    y q.t.E ` Z.6XwX9X9X7Xs @ 1 = 4 K % ) < $ K % 5 D.>X7X9X9XwX$X .b.#.L Q.XX!.+ - % = /.n E L     ",
"    r 7.t.E ` Z.6XwX9X9X7Xs @ r P ^ 6.P q.' ! 6.; 4 #XwX9X9X9XwX$X} b.#.L Q. X!.X @ . * [.b E L     ",
"    e ~ q.E ` Z.4X6X9X9X7Xs @ 6 q.F.F.F.F.F.F.q.; 4 #XwX9XwX>X:X|.) b.#.L v `.!.X O . * [.b E L     ",
"    e E %.E ` B.J.H.>X9X7Xs @ * % 3 4 3 4 3 % % @ 5 #XwX9X9X6X#XD.) b.#.L Q.OX(.& 4 & 0 ].b E L     ",
"    e E %.E ` B.U.U.>X7X7Xs @ 0 6 6 7 @ L = # 1 @ 4 #XwX7X7X9X>XM.) q.~ L Q./.e ~ ~ E R a.b E L     ",
"    e ~ %.E ` Z.:XL.L.P.6Xs @ >.>.y.^ - &.K = I @ 5 #X#XL.L.L.>X}.) 4.~ K Q._.j i.h h h b b E L     ",
"    e %.&.E ` Z.:XT.E.E.4Xs @ [ 9 y.u.4 0.P 8 #.% 4 #XE.J.J.J.,X$X) 4.W e Q.OX X_.'.'.'.XXb E L     ",
"    e #.&.E ` B.H.J.:XL.Z.5 @ 4 9 !  .;  .6 3 ' @ 5 T.#X#X6X4X*XS.) 4.W e Q.+XoX'.+X+X.X'.n L /     ",
"    e #.&.L i B.H.L.>XP.B.5 @ e - - 7 # r - $ e @ 5 B.C.C.E.#XC.f.) 4.W e Q.XXXX.X+XOX`.).l K r     ",
"    e #.&.L i B.Y.7X7X#XZ.5 @ e 8.y.y.y.y.y.y.8.; 5 B.#X#X#X:XY.f.) 4.W e v ).'. X+XXXoX.Xn K r     ",
"    e #.&.L t h.f.M.M.f.r.4 @ = ! ,.,.,.,.,.>.! @ 3 2.g.g.f.f.f.1.} 4.W r z Q.Q.~.[.].].Q.j K r     ",
"    e #.&.L e } ~ ~ ~ ~ ^ % O * O # % + = = + ; O $ _ ^ ~ ~ ~ ~ )  .q.W L ) ~ ~ ^ ~ ~ ~ ~ ( r r     ",
"    e %.&.L 0 / L L L L K # # # O # # O $ $ O $ # # / / L L L L r  .q.W I r L L L L L L L r r r     "
};
