/* XPM */
static char *_bb02228948643d5bb5f823bffd46655ukzgrGrvaMBeAA89[] = {
/* columns rows colors chars-per-pixel */
"50 50 181 2 ",
"   c None",
".  c #EBB949",
"X  c #ECBA4D",
"o  c #ECBB50",
"O  c #ECBB51",
"+  c #ECBC51",
"@  c #ECBC52",
"#  c #ECBC53",
"$  c #ECBD53",
"%  c #ECBD54",
"&  c #ECBD55",
"*  c #EDBD55",
"=  c #EDBD56",
"-  c #EDBE56",
";  c #EDBE57",
":  c #EDBE58",
">  c #EDBE59",
",  c #EDBF59",
"<  c #EDBF5A",
"1  c #EDBF5B",
"2  c #EDC05C",
"3  c #EDC05D",
"4  c #EDC05E",
"5  c #EDC15E",
"6  c #EDC15F",
"7  c #EEC15F",
"8  c #EDC160",
"9  c #EDC161",
"0  c #EEC160",
"q  c #EDC162",
"w  c #EDC262",
"e  c #EEC262",
"r  c #EEC263",
"t  c #EEC363",
"y  c #EDC264",
"u  c #EDC365",
"i  c #EEC365",
"p  c #EEC367",
"a  c #EEC468",
"s  c #EFC568",
"d  c #EEC469",
"f  c #EFC569",
"g  c #EEC46A",
"h  c #EFC56A",
"j  c #EEC56B",
"k  c #EEC56C",
"l  c #EFC66C",
"z  c #EFC66D",
"x  c #EEC66E",
"c  c #EFC76E",
"v  c #EEC66F",
"b  c #EEC670",
"n  c #EEC771",
"m  c #EEC772",
"M  c #EEC773",
"N  c #EEC874",
"B  c #EEC875",
"V  c #EEC877",
"C  c #EEC979",
"Z  c #EECA7A",
"A  c #EECA7B",
"S  c #EFCA7B",
"D  c #EFCB7D",
"F  c #EFCB7E",
"G  c #EFCB7F",
"H  c #F0C872",
"J  c #F0CA76",
"K  c #F0CA77",
"L  c #F0CB79",
"P  c #F1CC7B",
"I  c #F1CE7F",
"U  c #EFCC80",
"Y  c #EFCC81",
"T  c #EFCC82",
"R  c #EFCD83",
"E  c #EFCD84",
"W  c #EFCD85",
"Q  c #EFCE88",
"!  c #EFCF88",
"~  c #EFCF89",
"^  c #EFCF8A",
"/  c #F1CE81",
"(  c #F1CE82",
")  c #F1CF82",
"_  c #F2CF83",
"`  c #F2CF84",
"'  c #EFD08C",
"]  c #EFD08E",
"[  c #EFD18F",
"{  c #F2D086",
"}  c #F2D187",
"|  c #F2D188",
" . c #F2D28A",
".. c #F2D28B",
"X. c #F3D38E",
"o. c #EFD190",
"O. c #EFD191",
"+. c #EFD192",
"@. c #EFD397",
"#. c #F0D292",
"$. c #F0D293",
"%. c #F3D592",
"&. c #F0D294",
"*. c #F0D395",
"=. c #F0D396",
"-. c #F0D397",
";. c #F3D695",
":. c #F0D498",
">. c #F0D499",
",. c #F0D49A",
"<. c #F0D49B",
"1. c #F0D59B",
"2. c #F4D799",
"3. c #F0D59C",
"4. c #F0D59D",
"5. c #F0D69E",
"6. c #F0D69F",
"7. c #F0D6A0",
"8. c #F0D7A1",
"9. c #F1D7A1",
"0. c #F5DBA2",
"q. c #F2DAA5",
"w. c #F5DCA5",
"e. c #F5DDA7",
"r. c #F5DDA8",
"t. c #F5DDA9",
"y. c #F6E0AF",
"u. c #F7E3B6",
"i. c #F7E3B7",
"p. c #F7E3B8",
"a. c #F7E4B8",
"s. c #F5E3BD",
"d. c #F8E4BB",
"f. c #F8E5BC",
"g. c #F8E7C1",
"h. c #F8E7C2",
"j. c #F9E8C4",
"k. c #F9E9C6",
"l. c #F9E9C7",
"z. c #F9EAC9",
"x. c #F9EBCB",
"c. c #F8EACC",
"v. c #F8EACE",
"b. c #FAECCD",
"n. c #FAECCE",
"m. c #FAEDD0",
"M. c #FAEDD2",
"N. c #FAEED3",
"B. c #F9EDD5",
"V. c #FAEFD6",
"C. c #FBEFD6",
"Z. c #FBEFD7",
"A. c #F9EED8",
"S. c #FBF0D9",
"D. c #FBF1DA",
"F. c #FBF2DC",
"G. c #FBF2DF",
"H. c #FCF3DF",
"J. c #FCF3E1",
"K. c #FCF4E2",
"L. c #FCF5E4",
"P. c #FCF5E6",
"I. c #FCF6E7",
"U. c #FDF7EA",
"Y. c #FDF9EF",
"T. c #FDF9F0",
"R. c #FDF9F1",
"E. c #FEFAF2",
"W. c #FEFAF3",
"Q. c #FEFBF4",
"!. c #FEFBF5",
"~. c #FEFCF8",
"^. c #FEFCF9",
"/. c #FEFDF9",
"(. c #FEFDFA",
"). c #FEFDFB",
"_. c #FFFDFB",
"`. c #FEFEFC",
"'. c #FFFEFC",
"]. c #FFFEFD",
"[. c white",
/* pixels */
"                                                                                                    ",
"                                                                                                    ",
"                                                                                                    ",
"                                      : : : : : : : : : : : :                                       ",
"                                    E M M M M M M M M M M N M d                                     ",
"                                3.3.:.:.:.:.:.:.:.=.=.=.=.=.O.k : :                                 ",
"                          3.3.3.3.3.3.3.3.3.3.7.=.A M M M M M w : : : : :                           ",
"                        3.3.3.3.3.3.3.3.3.3.3.#.G w * : : : : : : : : : : :                         ",
"                      3.3.3.3.3.3.3.3.3.:.:.:.A 2 : : : : : : : : : : : : : :                       ",
"                    3.3.3.3.3.3.3.3.3.:.U M M w                 : : : : : : : :                     ",
"                  #.3.3.3.3.3.3.3.3.3.:.k w L 2.                  : : : : : : : :                   ",
"                2 U 3.3.3.3.3.3.3.3.3.      P.Q.[.[.[.[.                  : : : : :                 ",
"              p A ] 3.3.3.3.3.3.3.3.      [.[.[.[.[.[.[.[.                  : : : : :               ",
"            * k =.3.3.3.3.3.3.3.3.      [.[.[.E.P.P.E.[.[.[.                  : : : : :             ",
"            * k =.3.3.3.3.3.3.3.        [.[.[.a.P P a.[.[.[.                    : : : :             ",
"            A U :.3.3.3.3.3.3.          [.[.[.0.O O 0.[.[.[.                      : : :             ",
"          3.:.:.3.3.3.3.3.3.            [.[.[.w.* * w.[.[.[.                        : : :           ",
"          3.3.3.3.:.:.:.@.            [.[.[.[.r.* * r.[.[.[.[.                        : :           ",
"        3.3.3.=.! q.s.s.v.          [.[.[.E.b...: : ..b.E.[.[.[.                        :           ",
"      3.3.3.3.! d p.~.~.[.[.[.[.[.[.[.[.[.S.K : : : : K S.[.[.[.[.[.[.[.[.[.[.[.[.        : :       ",
"      3.3.3.3.O.! v.[.[.[.[.[.[.[.[.[.[.[.S.d @ : : @ d S.[.[.[.[.[.[.[.[.[.[.[.[.        : :       ",
"      3.3.3.3.:.7.A.[.[.[.~.F.N.V.V.V.V.S.i.d * : : * d i.S.V.V.V.V.N.F.~.[.[.[.P.        : :       ",
"      3.3.3.3.:.3.V.[.[.[.U.X.d k k k k k d 2 : : : : 2 d k k k k k d X.U.[.[.[.f.w       : :       ",
"      3.3.3.3.O.G r.[.[.[.Q.g.` @ @ * * * * : : : : : : * * * * @ @ ` g.Q.[.E.d.( 2 :               ",
"      3.3.3.3.! 2     [.[.[.[.x.L w : : : : : : : : : : : : : : 2 L x.[.[.[.K.K * : : :             ",
"      3.3.3.3.! w       [.[.[.~.V.( * : : : : : : : : : : : : * I V.~.[.[.[.  2 : : : : :           ",
"      3.3.3.7.! w         [.[.[.[.k...: * : : : : : : : : * 2 ..k.[.[.[.[.      : : : : :           ",
"      3.3.3.:.U 2           [.[.[.[.b.K 2 : : : : : : : : 2 K b.[.[.[.[.          : : : :           ",
"      3.3.:.A p :             [.[.[.~.V...* : : : : : : : ..V.~.[.[.[.            : : : :           ",
"      3.3.=.k * :               [.[.Y.k.( : : : : : : : : ( k.Y.[.[.              : : : : :         ",
"      3.3.:.M : :               [.[.x.k : : : : : : : : : : k x.[.[.              : : : : : :       ",
"        7.:.M : :           [.[.[.[.x.w * : * * * * * * : * w x.[.[.[.[.          : : : : : :       ",
"          E d : : :         [.[.~.J.w.w @ w ` ........` w @ w w.J.~.[.[.          : : w d w :       ",
"          w 2 : : : :       [.[.E.;.2 : * ( H.Q.E.E.Q.H.( * : 2 ;.E.[.[.          : : k ] M :       ",
"            : : : : :       [.[.E.{ X : %.N.[.[.[.[.[.[.N.%.: X { E.[.[.          : * M =.N :       ",
"            : : : : :       [.[.E.{ 2 ( N.[.[.[.[.[.[.[.[.N.( 2 { E.[.[.        : : w A =.M :       ",
"            : : : : :       [.[.E.{ ( F.~.[.[.[.    [.[.[.~.F.( { E.[.[.      : : 2 U :.:.M :       ",
"              : : : : :     [.[.~.g.k.[.[.[.[.        [.[.[.[.k.g.~.[.[.    : * p G =.7.3.G         ",
"                : : : : @   ~.[.[.[.[.[.E.H.            [.[.[.[.[.[.[.~.  O : w A :.3.:.#.          ",
"                  : : : : w   [.[.[.[.[.y.H 2             [.[.[.[.[.[.  w * w U =.3.3.! k           ",
"                    : : : :     [.[.J.i.L @ : :             [.[.[.[.  . * p A =.3.3.7.E 2           ",
"                      : : :           2 2 : : : :                   w 2 w G :.3.3.3.:.U 2           ",
"                        : : :           : : : : : : : : : : * * @ * N ! ! #.3.3.3.:.A d             ",
"                          : : :           : : : : : : : : : 1 d M M ] 7.7.3.3.3.=.U d               ",
"                                :           : : : : : : : : 2 U =.=.=.:.:.:.:.:.U w                 ",
"                                              : : : : : : : 2 k N N M M M M M M k                   ",
"                                                : : : : : : : : : : : : : : : :                     ",
"                                                        : : : : : : : :                             ",
"                                                                                                    ",
"                                                                                                    "
};
