/* XPM */
static char *_5ea2fa36f564356f4e81746eed0721e1liAIvmNMp4wlz25[] = {
/* columns rows colors chars-per-pixel */
"50 50 74 1 ",
"  c None",
". c black",
"X c #020202",
"o c #040404",
"O c #070707",
"+ c #080302",
"@ c #080402",
"# c #0A0603",
"$ c #0A0704",
"% c #130A05",
"& c #130C07",
"* c #1B0A05",
"= c #1A1109",
"- c #1C120A",
"; c #201208",
": c #2A170B",
"> c #2B180B",
", c #3E2210",
"< c #3A2514",
"1 c #3C2615",
"2 c #34251C",
"3 c #35251C",
"4 c #35271E",
"5 c #07142A",
"6 c #3A342B",
"7 c #332B33",
"8 c #37383B",
"9 c #412512",
"0 c #452814",
"q c #4B2D17",
"w c #492D18",
"e c #4E301A",
"r c #4F311A",
"t c #50311A",
"y c #53341C",
"u c #56371E",
"i c #5F3D27",
"p c #734D35",
"a c #3C3D41",
"s c #1E3C77",
"d c #413F42",
"f c #4B4545",
"g c #494A4F",
"h c #4E4F54",
"j c #4F4F54",
"k c #4E4F55",
"l c #4F5055",
"z c #4F5155",
"x c #7C5943",
"c c #815A43",
"v c #8E6347",
"b c #886B54",
"n c #AD7C5D",
"m c #8F7D66",
"M c #8B7D68",
"N c #97846B",
"B c #9C876C",
"V c #B79476",
"C c #18418B",
"Z c #1D4B97",
"A c #1D4C98",
"S c #2F5E9E",
"D c #245BAA",
"F c #2865B6",
"G c #3368B2",
"H c #3569B2",
"J c #3C70B6",
"K c #797F98",
"L c #797F99",
"P c #798098",
"I c #798099",
"U c #7A8099",
"Y c #A5AAB6",
"T c #C1AE90",
/* pixels */
"                                                  ",
"                                                  ",
"            .........  .....                      ",
"            .........  .....                      ",
"            ..1uuuu,,..uu1......                  ",
"            ..1uuuu,,..uu1......                  ",
"            ..&--uurr::uuw::<<<<OO                ",
"            .....uuuu,,uur,,uuuu..                ",
"            @@@$$uuuu99uut99uuuu$$                ",
"          ..,,ruuuuuuuuuuuuuuuuuuu=..             ",
"          ..,,ruuuuuuuuuuuuuuuuuuu=..             ",
"        ..,,uuuuuuuuuuuuuuuuuuuuuuuuu..           ",
"        ..,,uuuuuuuuuuuuuuuuuuuuuuuuu..           ",
"        ..,,uuuuu,,uuuuuur,,,,uuuuuuu..           ",
"        ..,,uuuuu,,uuuuuur,,,,uuuuuuu..           ",
"        ..,,,,,,,,,uuuuuur,,nnnn,,ruu,,..         ",
"        ..,,,,,,,,,uuuuuur,,nnnn,,ruu,,..         ",
"        ..,,uu0,,,,uuuu,,innnnnnnni,,,,..         ",
"        ..,,uu0,,,,uuuu,,innnnnnnni,,,,..         ",
"        ..,,uuuuunn,,uunnc**TTTT**+..,,..         ",
"        ..,,uuuuunn,,uunnc**TTTT**+..,,..         ",
"        ..,,qqyuunnppqqVVb**TTTT**+..;;           ",
"        ..,,,,ruunnnn,,TTm**TTTT**+....           ",
"        ..,,,,ruunnnn,,TTm**TTTT**+....           ",
"          ..,,,,,nnnnTTTTTTTTTTTTT6..             ",
"          ..,,,,,nnnnTTTTTTTTTTTTT6..             ",
"          ..,,,,,,,nnnnTTTTTTTTTnn3..             ",
"          ..,,,,,,,nnnnTTTTTTTTTnn3..             ",
"          ..,,ruuuuuunnnnnnnnnnn..                ",
"          ..,,ruuuuuunnnnnnnnnnn..                ",
"          ..,,,,,uuuu  KKPKK,,....                ",
"          ..,,,,,uuuu PKKKKK,,....                ",
"          ..TTTTT,,uuP YYYYY,,nnnn3..             ",
"          ..TTTTT,,uu  YYYYY,,nnnn3..             ",
"          ..TTTTT,,SSGHJJJJJssnnnn3..             ",
"          ..TTTTT,,FFFFFFFFFCCnnnn3..             ",
"          ..MMNBB77DDFFFFFFFZZvvxx3.              ",
"            ..>,,CCCCFFFFFFFFF,,..                ",
"            ..>,,CCCCFFFFFFFFF,,..                ",
"            ..>,,,,....CCAFFFFFF..                ",
"            ..>,,,,....CCAFFFFFF..                ",
"            .......llll..5CCFF,,,,%..             ",
"            .......llll..5CCFF,,,,%..             ",
"          lllllllllllllll8..,,,,,,%..ll           ",
"          lllllllllllllll8..,,,,,,%..ll           ",
"          lllllllllllllllgaaffffffdaall           ",
"          lllllllllllllllllllllllllllll           ",
"          lllllllllllllllllllllllllllll           ",
"            lllllllllllllllllllllllll             ",
"            llllllllllllllllllllllhhh             "
};
