/* XPM */
static char *ce6a6a57afb84b44be07233786f1cdf9kwyfdTM97afqHI5v[] = {
/* columns rows colors chars-per-pixel */
"50 50 202 2 ",
"   c None",
".  c #3F5F3F",
"X  c #416C3F",
"o  c #43773F",
"O  c #2F2942",
"+  c #322C44",
"@  c #362E4A",
"#  c #382F4E",
"$  c #333444",
"%  c #313D44",
"&  c #3A314E",
"*  c #3B3948",
"=  c #3A2E52",
"-  c #3E2D5D",
";  c #3B3153",
":  c #3D3B51",
">  c #3E3259",
",  c #41344F",
"<  c #402F5F",
"1  c #42335D",
"2  c #423B5C",
"3  c #433658",
"4  c #523E5E",
"5  c #422F61",
"6  c #433461",
"7  c #493765",
"8  c #4B3A64",
"9  c #4D3969",
"0  c #4A376B",
"q  c #523C6D",
"w  c #553F63",
"e  c #553D72",
"r  c #583F75",
"t  c #593F7A",
"y  c #334243",
"u  c #314C45",
"i  c #35494C",
"p  c #3A4548",
"a  c #325246",
"s  c #325D45",
"d  c #3C4556",
"f  c #3B4D56",
"g  c #375352",
"h  c #3A5354",
"j  c #3F5E53",
"k  c #2E6E47",
"l  c #2F6E48",
"z  c #346646",
"x  c #316C46",
"c  c #33644B",
"v  c #326C49",
"b  c #3C654B",
"n  c #2F7246",
"m  c #317147",
"M  c #357B44",
"N  c #337149",
"B  c #3A7949",
"V  c #3B7746",
"C  c #42474B",
"Z  c #43594E",
"A  c #44455E",
"S  c #454C5A",
"D  c #484857",
"F  c #485855",
"G  c #565753",
"H  c #44664D",
"J  c #466D4E",
"K  c #5E6A4B",
"L  c #5D664C",
"P  c #4B724D",
"I  c #4B7B4A",
"U  c #467048",
"Y  c #446357",
"T  c #4F7652",
"R  c #5A7C46",
"E  c #6A7257",
"W  c #737C5E",
"Q  c #4D4064",
"!  c #4C4269",
"~  c #5A416D",
"^  c #554563",
"/  c #4B5D65",
"(  c #59506E",
")  c #5B4175",
"_  c #5D417A",
"`  c #5F4D7C",
"'  c #5C5178",
"]  c #5A5176",
"[  c #6C4C74",
"{  c #61447D",
"}  c #634C7D",
"|  c #654778",
" . c #704D7F",
".. c #74507D",
"X. c #63476C",
"o. c #5F7567",
"O. c #536666",
"+. c #666474",
"@. c #88687D",
"#. c #45853E",
"$. c #43953F",
"%. c #469B3E",
"&. c #4B9B3C",
"*. c #4A963C",
"=. c #4BA33C",
"-. c #4EAA3B",
";. c #47A03C",
":. c #52AD3B",
">. c #51A63E",
",. c #4EB137",
"<. c #53B339",
"1. c #5CB53D",
"2. c #55B938",
"3. c #5EB83D",
"4. c #60B93E",
"5. c #3A8443",
"6. c #3E8B41",
"7. c #4B8D45",
"8. c #428941",
"9. c #548D47",
"0. c #429240",
"q. c #4D9741",
"w. c #5B944C",
"e. c #569847",
"r. c #5E885A",
"t. c #61984F",
"y. c #7E9955",
"u. c #57A542",
"i. c #67AA48",
"p. c #65B343",
"a. c #6CBD42",
"s. c #6BB746",
"d. c #76BC49",
"f. c #6CA250",
"g. c #75AA51",
"h. c #79AE51",
"j. c #7BB052",
"k. c #7F8862",
"l. c #6FC142",
"z. c #74C244",
"x. c #7AC446",
"c. c #7EC648",
"v. c #7FC847",
"b. c #829C5A",
"n. c #89A859",
"m. c #91AA5C",
"M. c #88B755",
"N. c #97B858",
"B. c #9CA76D",
"V. c #8CA566",
"C. c #AFB277",
"Z. c #A9B96C",
"A. c #84C94A",
"S. c #8CCC4D",
"D. c #83C24D",
"F. c #92CF4F",
"G. c #93CD51",
"H. c #9ACC56",
"J. c #96D250",
"K. c #9BD352",
"L. c #9AD950",
"P. c #A2C759",
"I. c #A3D655",
"U. c #A5D955",
"Y. c #A9DA56",
"T. c #AFDC59",
"R. c #ACDB58",
"E. c #A8D45A",
"W. c #B1DD5A",
"Q. c #B4DE5B",
"!. c #B7DF5C",
"~. c #B4DD5C",
"^. c #B6E15B",
"/. c #BAE15C",
"(. c #B1C56C",
"). c #644583",
"_. c #684786",
"`. c #6B4A84",
"'. c #6C4A89",
"]. c #684787",
"[. c #744F89",
"{. c #765186",
"}. c #795385",
"|. c #7B538D",
" X c #77508D",
".X c #83598C",
"XX c #825792",
"oX c #8C5D93",
"OX c #8E5D99",
"+X c #875B94",
"@X c #905F95",
"#X c #876387",
"$X c #95629B",
"%X c #9B659D",
"&X c #976398",
"*X c #A87E8E",
"=X c #A77899",
"-X c #9D66A0",
";X c #A26AA2",
":X c #B37BA3",
">X c #BA84A1",
",X c #CC93A5",
/* pixels */
"                                                                                                    ",
"                                                                                                    ",
"                        M %.-.                          m m                                         ",
"                            ;.<.%.  k             m m   m m                                         ",
"                      $.M   6.-.-.%.8.g k k n k m   m m m m m                                       ",
"                      -.%.6.-.-.l.z.:.q.;.;.;.;.H v m m m m m                                       ",
"                  M <.0.m w.x.3.U.x.<.<.<.<.<.<.>.=.=.-.-.-.H v m B B N   B m                       ",
"                    6.-.6.a.Y.z.S.<.<.<.<.<.a.c.<.<.4.4.<.<.:.:.-.D.R.h.M.G.%.m m                   ",
"                    k 0.<.<.c.4.<.3.a.l.1.-.<.F.c.c.Q.T.z.a.1.1.4.<.J.S.c.z.a.7.                    ",
"                    5.6.-.<.<.z.x.K.!.M.w.p.S.!.K.F.F.F.F.G.a.4.A.3.3.z.<.I.J.w.k                   ",
"                  i.<.<.<.<.<.A.D.g.f.M p.T./.K.1.,.,.,.,.<.<.,.c.x.x.a.<.d.#.N m                   ",
"                ^.W.S.S.3.<.<.$.M k n ;.a.x.x.A.S.S.S.S.c.<.<.A.K.K.W.F.<.6.a y m m                 ",
"                w.E./.S.<.;.5.m s % y R J.J.J.U./.!.!.!.W.J.J.W.!.!.Y.u.5.x %                       ",
"                k 9.R.d.5.m u $ $ * 9.P.^.!.!.Q.Q.Q.Q.Q.W.W.W.T.T.R.p.M v d +                       ",
"                x v B N c $ + + G N.H.E.E.Y.Y.T.!.Q.^.^.I.3.3.3.1.:.M x i > +                       ",
"                v f f 1 6 ; + + + a z z 8.e.q.d.I.K.N.N.M.=.<.<.8.M s + ; > @ +                     ",
"                g 2 6 6 6 > + @ + @ + + + ; = Z 7.P 6 6 2 #.<.$.M ;.p # ; ; # +                     ",
"                6 ; 1 6 1 ; ; ; + ; ; & @ @ + @ = 6 > = p $.0.x b I 2 1 ; ; # +                     ",
"            n f ; [ `.0 > @ ; + + ; 6 6 1 ; # + + # w [ $ i i y = 6 1 ; ; + @ +     m               ",
"              v * &XOX{ 1 # 1 ; + ; 6 6 ; ; > + + O [ ;X..1 # + 1 1 ; ; ; @ # + *.$.x               ",
"          m   m i oX%X X6 # 6 1 + ; 6 6 1 1 1 # + ; e $XoX6 @ @ 6 6 > + + > d #.:.-.6.k             ",
"          m m m v } XXXX; 1 6 1 + ; 6 1 & 1 6 ; + 1 6 .XoX; + @ 6 1 > + + 1 d $.5.M 5.              ",
"            m m v `  X$X3 > 6 6 1 6 6 9 _ 7 6 ; @ 1 6 { +X; + 1 1 # + + ; 6 ; o 5.:.-.              ",
"          m m m v } ].{ 1 ; 6 6 6 S F 6 6 6 6 ; ; # 6 { |.# + 1 ; ; + # 6 1 ; u M -.5.              ",
"            n m N } ).1 = 6 6 5 A e.<.P S 6 6 6 @ ; 6 _ ) + # 1 ; ; + ; > ; ; @ x 6.k %.            ",
"            / N a 8 7 = : I I P F =.0.P S 6 6 6 ; ; # _ _ + ; 7 1 @ @ > ; ; ; @ i l 5.-.%.          ",
"            ' N y + # ; #.<.%.5.c M h 6 6 Q n.m.G + + ) _ # 1 _ q + & 9 = ; @ ~ q g $.6.k           ",
"            A Y 2 ; ; + p P =.M 5.;.b > ; b.A.^.i.$ + ) ) ; r '.e 1 _ q ; @ 4 %X+XA M m m           ",
"          ).A / 1 1 1 # + 1 S q.%.%.=.a 3 M.c.g.M x u q 3 q '.|.7 _ '.r # + X.;X;X}.g m m           ",
"          ).9 _ 3 > 6 # + 2 I 6.-.$.*.p y.c.g.0.1.m u @ 1 _ XX9 q ].].e # , %X;X;XXX1 c c           ",
"          ).1 + # 1 6 # @ H %.&.5.2.=.K A.G.w.u.A.9.a > e +X) 1 e '.).1 @ ^ %X;X;X .1 h 1 6         ",
"          r @ ; 1 1 1 # + H 2.o C I U K J.U.v.S.J.N.% 1 `.| 6 1 1 { r ; + &X;X:X.X1 6 6 1 1         ",
"          7 + ~ {.}.| ; + y X : 6 6 - L /.A.%.i.d.w.% 1 9 @ @ # + 1 ; 3 q $X:X*X8 1 6 6 ; ; 6       ",
"          ; ~ @X;X;X&X~ + + # 6 > # > D K F H =.5.n a @ 1 # + + @ 1 + 1 '. X=X@.> 6 ; > ; ; 1       ",
"          & {.;X;X;X.X7 + @ 1 1 @ + 1 > O @ d %.=.m u + > E N.C 1 1 + 1 ).0 #X@.> 6 1 # 1 ; ;       ",
"          * B.;X=X(.k.< + # 1 @ + 8 0 1 # + 6 T :.z $ + - W ^.m.6 1 + + e q ) ) 1 1 ; ; 6 ; +       ",
"        ).`.Z.=XC.m.S S & ; ; # & q 0 6 ; # ).+Xo.j + + 1 6 n.P.^ 1 @ * ! oXXXq 6 > ; ; 1 ; +       ",
"    6 e ].+.H.B.V.F 5.&.: ; 6 6 _ 9 1 > 7 ) XX;X$X}.; @ ; 6 9.L.b.> E y.z o.`.q 1 1 ; 1 > ; @       ",
"    7 )._.o.a.h.$.Z %.. + > 6 6 1 1 q | {.%X;XoX`._ # + @ 6 J 1.w.J P.t.%.r.`.q 1 1 ; 1 1 @ +       ",
"    6 r ] ' s.j.$.V &.y + # 6 6 e e XX;X;X,X>X| 9 7 @ + + > 6 B k i.d.M =.( ].q 1 1 ; 1 # + +       ",
"    # 7 ` / u.T 7.M y + + # 6 _ OXOX-X:X,X=X#X7 1 ; @ # + + & c 5.p.>.6.%.j ].q 1 ; ; > + +         ",
"    + 7 ].Y M g b y + + + + @ {  X X$X|.#X'.t ; ; ; > # + + + $ X $.%.M m A ].q 1 ; ; 1 + +         ",
"      1 e ! c a $ + + +   + + @ ; r `.).).).1 ; ; ; @ + + + + + $ s $.x f 7 ].q 1 ; 1 1 + +         ",
"      # 6 1 > + + +         + + + ; 1 9 ).9 1 # ; + + + + + +     + $ $ ; 6 ].q 1 ; ; # + +         ",
"        1 @ + +                 + + + ; > ; + + + + + + +           + + + & { e 1 ; ; ; + +         ",
"          +                           + + + + + + +                     + + q 9 1 ; # # + +         ",
"                                                                            7 1 ; # + # +           ",
"                                                                              1 @ + +               ",
"                                                                                                    ",
"                                                                                                    "
};
